<?xml version="1.0" encoding="UTF-8"?>
<svg xmlns="http://www.w3.org/2000/svg" xmlns:xlink="http://www.w3.org/1999/xlink" width="40px" height="40px" viewBox="0 0 40 40" version="1.1">
<g id="surface1">
<path style=" stroke:none;fill-rule:nonzero;fill:rgb(19.215687%,72.549021%,96.470588%);fill-opacity:1;" d="M 7.09375 38.035156 L 7.09375 32.539062 L 8.375 32.539062 L 10.652344 36.277344 L 9.976562 36.277344 L 12.191406 32.539062 L 13.46875 32.539062 L 13.484375 38.035156 L 12.054688 38.035156 L 12.039062 34.714844 L 12.285156 34.714844 L 10.628906 37.496094 L 9.9375 37.496094 L 8.230469 34.714844 L 8.53125 34.714844 L 8.53125 38.035156 Z M 16.257812 38.035156 L 13.910156 32.539062 L 15.589844 32.539062 L 17.570312 37.296875 L 16.582031 37.296875 L 18.605469 32.539062 L 20.144531 32.539062 L 17.789062 38.035156 Z M 22.269531 38.035156 L 19.921875 32.539062 L 21.605469 32.539062 L 23.582031 37.296875 L 22.59375 37.296875 L 24.621094 32.539062 L 26.160156 32.539062 L 23.800781 38.035156 Z M 26.480469 38.035156 L 26.480469 32.539062 L 27.761719 32.539062 L 30.039062 36.277344 L 29.363281 36.277344 L 31.578125 32.539062 L 32.855469 32.539062 L 32.871094 38.035156 L 31.441406 38.035156 L 31.425781 34.714844 L 31.671875 34.714844 L 30.015625 37.496094 L 29.324219 37.496094 L 27.617188 34.714844 L 27.917969 34.714844 L 27.917969 38.035156 Z M 26.480469 38.035156 "/>
<path style=" stroke:none;fill-rule:evenodd;fill:rgb(0.784314%,32.549021%,60.392159%);fill-opacity:1;" d="M 21.9375 30.378906 L 13.707031 22.214844 L 18.253906 17.589844 L 31.082031 30.378906 Z M 21.9375 30.378906 "/>
<path style=" stroke:none;fill-rule:evenodd;fill:rgb(27.058825%,81.960785%,99.215686%);fill-opacity:0.85098;" d="M 13.605469 22.21875 L 21.761719 14.070312 L 30.929688 14.070312 L 18.242188 26.746094 Z M 13.605469 22.21875 "/>
<path style=" stroke:none;fill-rule:evenodd;fill:rgb(27.058825%,81.960785%,99.215686%);fill-opacity:1;" d="M 6.542969 15.113281 L 11.175781 19.734375 L 30.929688 0 L 21.714844 0 Z M 6.542969 15.113281 "/>
</g>
</svg>
