<?xml version="1.0" encoding="UTF-8"?>
<svg xmlns="http://www.w3.org/2000/svg" xmlns:xlink="http://www.w3.org/1999/xlink" width="16px" height="16px" viewBox="0 0 16 16" version="1.1">
<g id="surface1">
<path style=" stroke:none;fill-rule:nonzero;fill:rgb(69%,69%,70%);fill-opacity:1;" d="M 0.386719 10.597656 L 0.386719 6.765625 C 0.386719 6.589844 0.429688 6.429688 0.511719 6.289062 C 0.601562 6.140625 0.714844 6.027344 0.859375 5.941406 C 1.003906 5.855469 1.164062 5.808594 1.34375 5.808594 L 4.210938 5.808594 C 4.386719 5.808594 4.546875 5.855469 4.6875 5.941406 C 4.835938 6.027344 4.953125 6.140625 5.039062 6.289062 C 5.128906 6.429688 5.171875 6.589844 5.171875 6.765625 L 5.171875 10.597656 L 4.203125 10.597656 L 4.203125 9.023438 L 1.34375 9.023438 L 1.34375 10.597656 Z M 1.34375 8.0625 L 4.203125 8.0625 L 4.203125 6.8125 C 4.203125 6.800781 4.199219 6.792969 4.1875 6.789062 C 4.183594 6.777344 4.175781 6.773438 4.164062 6.773438 L 1.382812 6.773438 C 1.371094 6.773438 1.359375 6.777344 1.351562 6.789062 C 1.34375 6.792969 1.34375 6.800781 1.34375 6.8125 Z M 9.363281 10.597656 L 7.945312 8.910156 L 9.203125 8.910156 L 10.371094 10.296875 L 10.371094 10.597656 Z M 5.597656 10.597656 L 5.597656 5.816406 L 9.421875 5.816406 C 9.597656 5.816406 9.757812 5.859375 9.902344 5.949219 C 10.046875 6.035156 10.164062 6.148438 10.253906 6.296875 C 10.339844 6.441406 10.386719 6.601562 10.386719 6.773438 L 10.386719 8.039062 C 10.386719 8.210938 10.339844 8.371094 10.253906 8.515625 C 10.164062 8.65625 10.046875 8.773438 9.902344 8.863281 C 9.757812 8.945312 9.597656 8.988281 9.421875 8.988281 L 6.554688 8.996094 L 6.554688 10.597656 Z M 6.597656 8.023438 L 9.375 8.023438 C 9.386719 8.023438 9.398438 8.023438 9.402344 8.015625 C 9.410156 8.007812 9.414062 8 9.414062 7.992188 L 9.414062 6.8125 C 9.414062 6.800781 9.410156 6.792969 9.402344 6.789062 C 9.398438 6.777344 9.386719 6.773438 9.375 6.773438 L 6.597656 6.773438 C 6.582031 6.773438 6.570312 6.777344 6.5625 6.789062 C 6.558594 6.792969 6.554688 6.800781 6.554688 6.8125 L 6.554688 7.992188 C 6.554688 8 6.558594 8.007812 6.5625 8.015625 C 6.570312 8.023438 6.582031 8.023438 6.597656 8.023438 Z M 10.773438 10.597656 L 10.773438 5.808594 L 14.417969 5.808594 C 14.589844 5.808594 14.746094 5.855469 14.890625 5.941406 C 15.035156 6.027344 15.152344 6.140625 15.242188 6.289062 C 15.328125 6.429688 15.375 6.589844 15.375 6.765625 L 15.375 7.683594 C 15.375 7.742188 15.371094 7.796875 15.359375 7.851562 C 15.351562 7.898438 15.339844 7.949219 15.320312 7.996094 C 15.390625 8.089844 15.449219 8.191406 15.492188 8.304688 C 15.539062 8.410156 15.558594 8.519531 15.558594 8.628906 L 15.558594 9.640625 C 15.558594 9.816406 15.515625 9.980469 15.425781 10.125 C 15.339844 10.265625 15.222656 10.382812 15.074219 10.472656 C 14.933594 10.554688 14.773438 10.597656 14.597656 10.597656 Z M 11.769531 9.632812 L 14.550781 9.632812 C 14.5625 9.632812 14.570312 9.632812 14.578125 9.625 C 14.585938 9.617188 14.589844 9.605469 14.589844 9.59375 L 14.589844 8.683594 C 14.589844 8.671875 14.585938 8.664062 14.578125 8.65625 C 14.570312 8.648438 14.5625 8.640625 14.550781 8.640625 L 11.769531 8.640625 C 11.757812 8.640625 11.746094 8.648438 11.738281 8.65625 C 11.734375 8.664062 11.730469 8.671875 11.730469 8.683594 L 11.730469 9.59375 C 11.730469 9.605469 11.734375 9.617188 11.738281 9.625 C 11.746094 9.632812 11.757812 9.632812 11.769531 9.632812 Z M 11.769531 7.679688 L 14.363281 7.679688 C 14.371094 7.679688 14.382812 7.675781 14.390625 7.671875 C 14.398438 7.664062 14.402344 7.652344 14.402344 7.644531 L 14.402344 6.8125 C 14.402344 6.800781 14.398438 6.792969 14.390625 6.789062 C 14.382812 6.777344 14.371094 6.773438 14.363281 6.773438 L 11.769531 6.773438 C 11.757812 6.773438 11.746094 6.777344 11.738281 6.789062 C 11.734375 6.792969 11.730469 6.800781 11.730469 6.8125 L 11.730469 7.644531 C 11.730469 7.652344 11.734375 7.664062 11.738281 7.671875 C 11.746094 7.675781 11.757812 7.679688 11.769531 7.679688 Z M 11.769531 7.679688 "/>
</g>
</svg>
